<svg xmlns="http://www.w3.org/2000/svg" width="98" height="72" viewBox="0 0 98 72">
  <defs>
    <style>
      .cls-1 {
        fill: #c5c5c5;
        opacity: 0;
      }

      .cls-2 {
        fill: none;
        stroke: red;
        stroke-linecap: round;
        stroke-linejoin: round;
        stroke-width: 3px;
      }

      .cls-3 {
        fill: #fbcf00;
      }
    </style>
  </defs>
  <g id="ico_side" transform="translate(-905 -319)">
    <rect id="사각형_475" data-name="사각형 475" class="cls-1" width="98" height="72" transform="translate(905 319)"/>
    <g id="그룹_2696" data-name="그룹 2696" transform="translate(-2.779 -1)">
      <g id="그룹_1414" data-name="그룹 1414" transform="translate(320.105 72.2)">
        <g id="그룹_1413" data-name="그룹 1413">
          <path id="패스_421" data-name="패스 421" d="M681.362,269.382a1.611,1.611,0,0,0-.361-1.214,1.546,1.546,0,0,0-1.083-.59,1.507,1.507,0,0,0-1.214.328,1.545,1.545,0,0,0-.59,1.083l-5.249,44.186H654.659l-5.249-44.285a1.672,1.672,0,0,0-.623-1.083,1.507,1.507,0,0,0-1.214-.328,1.545,1.545,0,0,0-1.082.59,1.507,1.507,0,0,0-.328,1.214l5.413,45.728a1.571,1.571,0,0,0,1.607,1.443h21.125a1.61,1.61,0,0,0,1.082-.394,1.77,1.77,0,0,0,.558-1.05l5.413-45.63m-18.829-11.973a1.32,1.32,0,0,0-.426.558,1.52,1.52,0,0,0-.164.689v9.71a1.61,1.61,0,0,0,.492,1.181,1.558,1.558,0,0,0,1.148.459,1.573,1.573,0,0,0,1.64-1.64V259.41l8.693-7.446a1.621,1.621,0,0,0,.558-1.115,1.453,1.453,0,0,0-.394-1.181,1.572,1.572,0,0,0-1.115-.59,1.453,1.453,0,0,0-1.181.394Z"/>
        </g>
        <path id="패스_422" data-name="패스 422" class="cls-2" d="M957.7,363.019a4.713,4.713,0,0,1,.656,2.493,4.975,4.975,0,0,1-.492,2.2" transform="translate(-320.097 -73.185)"/>
      </g>
      <g id="그룹_1416" data-name="그룹 1416" transform="translate(320.105 73.2)">
        <g id="그룹_1415" data-name="그룹 1415">
          <path id="패스_423" data-name="패스 423" class="cls-3" d="M622.486,306.062a4.441,4.441,0,0,0-3.214-1.312,4.332,4.332,0,0,0-3.181,1.312,4.474,4.474,0,0,0,0,6.395h-.033a4.266,4.266,0,0,0,3.214,1.377,4.371,4.371,0,0,0,3.247-1.377h-.033a4.474,4.474,0,0,0,0-6.395m-1.377,1.41v-.033a2.5,2.5,0,0,1,.754,1.836,2.461,2.461,0,0,1-.754,1.8,2.517,2.517,0,0,1-1.836.787,2.355,2.355,0,0,1-1.771-.754l-.033-.033a2.461,2.461,0,0,1-.754-1.8,2.5,2.5,0,0,1,.754-1.836,2.447,2.447,0,0,1,1.8-.721,2.5,2.5,0,0,1,1.836.754m-17.053-9.149a4.2,4.2,0,0,0-5.968,0,4.236,4.236,0,0,0,0,5.936,4.209,4.209,0,1,0,5.968-5.936M599.5,299.7h-.033a2.263,2.263,0,0,1,3.87,1.607,2.147,2.147,0,0,1-.656,1.574,2.3,2.3,0,0,1-3.214,0h.033a2.147,2.147,0,0,1-.656-1.574,2.185,2.185,0,0,1,.656-1.607m30.629-10.363a4.117,4.117,0,0,1,5.772,0l.328.394.066.066a1.7,1.7,0,0,1,.23.394,1.014,1.014,0,0,0,.59.492.924.924,0,0,0,.754-.066,1.02,1.02,0,0,0,.492-.557,1.118,1.118,0,0,0-.066-.754,4.387,4.387,0,0,0-.525-.82q-.23-.262-.492-.525a6.017,6.017,0,1,0-8.526,8.494,5.691,5.691,0,0,0,4.263,1.8,5.8,5.8,0,0,0,4.3-1.8h-.033q.426-.426.754-.82V295.6q.23-.361.426-.721a1.139,1.139,0,0,0,.066-.754,1.015,1.015,0,0,0-.492-.59.838.838,0,0,0-.754-.033.88.88,0,0,0-.59.492q-.131.23-.262.492a6.358,6.358,0,0,1-.525.59,3.941,3.941,0,0,1-2.886,1.213,3.835,3.835,0,0,1-2.853-1.213h-.033a4.077,4.077,0,0,1,0-5.739m-10.953-1.377a6.017,6.017,0,1,0-8.526,8.494,5.691,5.691,0,0,0,4.263,1.8,5.8,5.8,0,0,0,4.3-1.8h-.033a5.978,5.978,0,0,0,0-8.494m-7.149,1.377a4.07,4.07,0,1,1,2.886,6.952,3.835,3.835,0,0,1-2.853-1.213h-.033a4.077,4.077,0,0,1,0-5.739m3.181-16.069a4.255,4.255,0,1,0,2.984,1.246,4.071,4.071,0,0,0-2.984-1.246m-1.607,2.623a2.3,2.3,0,1,1-.656,1.607A2.185,2.185,0,0,1,613.6,275.892Z"/>
        </g>
      </g>
      <g id="그룹_1418" data-name="그룹 1418" transform="translate(320.105 73.2)">
        <g id="그룹_1417" data-name="그룹 1417">
          <path id="패스_424" data-name="패스 424" class="cls-3" d="M684.892,267.1a1.558,1.558,0,0,0-1.148-.459H642.851a1.573,1.573,0,0,0-1.64,1.64,1.559,1.559,0,0,0,.459,1.148,1.612,1.612,0,0,0,1.181.492h40.893a1.681,1.681,0,0,0,1.64-1.64A1.626,1.626,0,0,0,684.892,267.1Z"/>
        </g>
      </g>
      <g id="그룹_1420" data-name="그룹 1420" transform="translate(320.105 72.2)">
        <g id="그룹_1419" data-name="그룹 1419">
          <path id="패스_425" data-name="패스 425" d="M622.257,268.907a.251.251,0,0,0-.1-.033q-11.9-3.083-19.742,1.312a1.511,1.511,0,0,0-.754.918,1.48,1.48,0,0,0,.033,1.181q1.738,4.066.885,6.755-.984,2.427-4.46,3.607a1.4,1.4,0,0,0-.853.689,1.454,1.454,0,0,0-.23,1.082q.492,3.771-1.082,5.837-1.8,2-5.8,2.394a1.545,1.545,0,0,0-1.082.59,1.617,1.617,0,0,0-.394,1.181,26.132,26.132,0,0,0,8.2,17.249.214.214,0,0,1,.1.1q14.331,11.838,31.81,2a1.071,1.071,0,0,1,.164-.131,24.324,24.324,0,0,0,10.232-18.43q.033-.393.033-.721v-.066a33.143,33.143,0,0,0-.164-4.853l-.066-.59q-.164-1.246-.393-2.492a.618.618,0,0,1-.033-.2q-4.2-13.281-16.3-17.381m-1.049,3.115q10.494,3.607,14.2,15.151.2,1.082.328,2.164l.066.59a30.4,30.4,0,0,1,.131,4.427v.525a.1.1,0,0,0-.033.066,21.238,21.238,0,0,1-8.854,16.036q-15.282,8.559-27.874-1.672a23.113,23.113,0,0,1-7.051-13.609,10.065,10.065,0,0,0,6.362-3.345q2.23-2.591,1.935-7.083a8.673,8.673,0,0,0,5.247-5.116q1.213-3.148-.361-7.706Q611.8,269.6,621.207,272.022Z"/>
        </g>
      </g>
    </g>
  </g>
</svg>
