<svg xmlns="http://www.w3.org/2000/svg" width="98" height="72" viewBox="0 0 98 72">
  <defs>
    <style>
      .cls-1 {
        fill: #d1b3b3;
        opacity: 0;
      }

      .cls-2 {
        fill: #fbcf00;
      }
    </style>
  </defs>
  <g id="ico_salade" transform="translate(-562 -321)">
    <rect id="사각형_477" data-name="사각형 477" class="cls-1" width="98" height="72" transform="translate(562 321)"/>
    <g id="그룹_2698" data-name="그룹 2698" transform="translate(-5.78)">
      <g id="그룹_1404" data-name="그룹 1404" transform="translate(164.605 41.65)">
        <g id="그룹_1403" data-name="그룹 1403">
          <path id="패스_415" data-name="패스 415" class="cls-2" d="M421.819,301.5a5.721,5.721,0,0,0-4.155,1.677,5.8,5.8,0,0,0-1.677,4.155,5.848,5.848,0,0,0,5.832,5.832,5.441,5.441,0,0,0,4.082-1.75,5.5,5.5,0,0,0,1.713-4.082,5.737,5.737,0,0,0-1.713-4.155,5.556,5.556,0,0,0-4.082-1.677m45.889,2.26a5.556,5.556,0,0,0-4.082-1.677,5.721,5.721,0,0,0-4.155,1.677,5.8,5.8,0,0,0-1.677,4.155v.182a5.459,5.459,0,0,0,1.677,3.9,5.6,5.6,0,0,0,4.155,1.75,5.441,5.441,0,0,0,4.082-1.75,5.5,5.5,0,0,0,1.713-4.082A5.736,5.736,0,0,0,467.707,303.762Z"/>
          <path id="패스_416" data-name="패스 416" d="M429.728,297.019a1.709,1.709,0,0,0-1.239-.62,1.868,1.868,0,0,0-1.932,1.75q-.255,4.775,2.952,6.524l-1.093,1.021a1.743,1.743,0,0,0-.62,1.276,1.832,1.832,0,0,0,3.062,1.421l3.536-3.244a1.637,1.637,0,0,0,.583-1.2,1.8,1.8,0,0,0-.437-1.312,1.717,1.717,0,0,0-1.2-.656q-3.317-.292-3.135-3.645a1.727,1.727,0,0,0-.474-1.312m13.923,6.925h.036q3.5.875,4.556,6.561a1.806,1.806,0,0,0,.765,1.13,1.743,1.743,0,0,0,1.385.292,1.844,1.844,0,0,0,1.421-2.114q-1.64-8.565-7.472-9.44h.073q-4.993-1.13-7.873,3.718a.1.1,0,0,1-.036.073,10.579,10.579,0,0,0-.911,7.436,1.857,1.857,0,0,0,2.187,1.385,1.659,1.659,0,0,0,1.13-.8,1.759,1.759,0,0,0,.255-1.349,7.216,7.216,0,0,1,.51-4.884,3.594,3.594,0,0,1,3.973-2M448.717,296a1.76,1.76,0,0,0-1.239.583,1.669,1.669,0,0,0-.51,1.312,1.8,1.8,0,0,0,.583,1.276,1.727,1.727,0,0,0,1.312.474q3.39-.146,4.41,1.859a1.779,1.779,0,0,0,.984.984,1.718,1.718,0,0,0,1.385,0,1.779,1.779,0,0,0,.984-.984,1.718,1.718,0,0,0,0-1.385q-1.6-4.337-7.909-4.119m46.946,27.263a14.212,14.212,0,0,0,2.3-4.921,1.949,1.949,0,0,0-.073-1.057,1.69,1.69,0,0,0-.693-.838,1.758,1.758,0,0,0-1.021-.328H408.989a1.654,1.654,0,0,0-1.021.328,1.9,1.9,0,0,0-.693.875,1.74,1.74,0,0,0-.036,1.057,11.462,11.462,0,0,0,2.114,4.3,49.592,49.592,0,0,0,2,5.832v.036a31.176,31.176,0,0,0,5.5,9,20.709,20.709,0,0,0,10.789,6.524v2.041a1.79,1.79,0,0,0,.547,1.312,1.731,1.731,0,0,0,1.276.51h45.779a1.748,1.748,0,0,0,1.822-1.822v-2a27.715,27.715,0,0,0,16.73-15.527v-.036a37.56,37.56,0,0,0,1.859-5.285m-2.114-3.5a17.847,17.847,0,0,1-1.021,1.64,1.324,1.324,0,0,0-.292.583,36.956,36.956,0,0,1-1.75,5.1,24.193,24.193,0,0,1-15.746,13.923,1.869,1.869,0,0,0-.948.656,1.744,1.744,0,0,0-.365,1.093v1.531H431.3v-1.75a1.741,1.741,0,0,0-.437-1.166,1.583,1.583,0,0,0-1.093-.62,16.934,16.934,0,0,1-10.169-5.65,28.827,28.827,0,0,1-4.884-7.982,42.113,42.113,0,0,1-1.9-5.759,2.663,2.663,0,0,0-.365-.693,6.016,6.016,0,0,1-.693-.911h81.79m-19.9-18.735a2.855,2.855,0,0,1,2.3-.437,1.937,1.937,0,0,0,1.349-.365,1.81,1.81,0,0,0,.729-1.2,1.938,1.938,0,0,0-.364-1.349,1.677,1.677,0,0,0-1.2-.693q-3.536-.51-5.358,1.458-1.822,1.6-2,5.431a1.727,1.727,0,0,0,.474,1.312,1.8,1.8,0,0,0,1.276.583,1.727,1.727,0,0,0,1.312-.474,1.8,1.8,0,0,0,.583-1.276,4.6,4.6,0,0,1,.911-2.989m10.935,3.244a2.878,2.878,0,0,1,2.041,1.9,9.231,9.231,0,0,1-.765,4.957,1.724,1.724,0,0,0,.073,1.385,1.646,1.646,0,0,0,1.021.948,1.824,1.824,0,0,0,1.385-.036,1.777,1.777,0,0,0,.948-1.021q1.64-4.447.875-7.144a6.138,6.138,0,0,0-4.41-4.447q-6.779-2.551-10.169,6.342a1.711,1.711,0,0,0,.036,1.421,1.793,1.793,0,0,0,.984.948,1.92,1.92,0,0,0,1.421-.036,1.947,1.947,0,0,0,.948-1.021Q480.938,303.252,484.583,304.272Z"/>
        </g>
      </g>
      <g id="그룹_1406" data-name="그룹 1406" transform="translate(164.605 41.65)">
        <g id="그룹_1405" data-name="그룹 1405">
          <path id="패스_417" data-name="패스 417" d="M474.264,305.051a2.124,2.124,0,0,0-.583.073A6.8,6.8,0,0,0,468,309.86a7.175,7.175,0,0,0-4.628-2.113h-.182a4.855,4.855,0,0,0-4.846,2.7H458.3l-.073.073a6.98,6.98,0,0,0-.947-3.607l-.036-.036a5.287,5.287,0,0,0-4.919-2.66q-5.793-.036-6.814,5.356a6.94,6.94,0,0,0-4.19-1.713H441a6.1,6.1,0,0,0-5.211,2.769l-.073-.219v-.036q-1.348-5.648-6.34-4.883-4.045.182-5.793,4.737a6.86,6.86,0,0,0-4.846-2.587h-.146a3.135,3.135,0,0,0-.51.036,6.621,6.621,0,0,0-5.028,3.1,2.761,2.761,0,0,0-1.457.182h-.036a2.63,2.63,0,0,0-1.567,1.567,2.735,2.735,0,0,0-.036,2.186v.036a2.942,2.942,0,0,0,1.494,1.567.105.105,0,0,0,.073.036,6.343,6.343,0,0,0,3.206.619,2.945,2.945,0,0,0,2.441-1.676,2.377,2.377,0,0,1,.146-.255,2.85,2.85,0,0,1,1.275-1.457,1.38,1.38,0,0,1,.619.51q2.3,3.534,4.773,3.024a4.67,4.67,0,0,0,3.68-1.968,1.192,1.192,0,0,0,.146-.182,9.382,9.382,0,0,0,1.057-2.259v-.036a2.076,2.076,0,0,1,1.057-1.348.926.926,0,0,1,.109.364q1.2,5.283,3.972,5.466a5.026,5.026,0,0,0,4.482-.947,2.733,2.733,0,0,0,.291-.255,9.343,9.343,0,0,0,1.6-1.713,1.126,1.126,0,0,1,.619-.51,1.334,1.334,0,0,1,.729.4q1.968,3.389,5.028,2.842,3.462.255,4.445-6.049a.9.9,0,0,1,1.057-.874h.036a5.741,5.741,0,0,1,.036,1.749v.364q.109,3.972,3.352,4.555h.073a6.159,6.159,0,0,0,5.429-1.093,7.368,7.368,0,0,0,2-1.968,1.428,1.428,0,0,1,.947.729v.036q1.895,3.607,5.028,2.623,2.842-.146,4.3-4.992a.688.688,0,0,1,.036-.219,1.337,1.337,0,0,1,.692-.838q.146,4.336,3.352,5.283,3.753,1.6,7.215-2l.073-.073a1.017,1.017,0,0,1,.729-.4,3.425,3.425,0,0,1,1.457,1.13l-.073-.182a3.783,3.783,0,0,0,2.733,2.332,5.627,5.627,0,0,0,3.753-.547v-.036a2.9,2.9,0,0,0,1.53-1.64v-.036a2.891,2.891,0,0,0-.073-2.113v-.036a2.752,2.752,0,0,0-1.64-1.53,2.656,2.656,0,0,0-1.785-.109,9.05,9.05,0,0,0-3.534-2.551l.036.036q-3.9-2.113-7.4,1.713a.032.032,0,0,0-.036.036,2.452,2.452,0,0,1-.51.4v-.146q-.547-5.466-5.721-5.466h-.036m12.17,5.976a3.094,3.094,0,0,0-1.53-.182,2.663,2.663,0,0,1,1.749.255l-.219-.073m-4.154,2.186-.036.036.036-.073v.036m2.879.036.036-.036-.036.109v-.073m-6.413.364a.81.81,0,0,1-.255-.109.3.3,0,0,0-.109-.036.585.585,0,0,1,.364.146m.073.036-.036-.036.219.073a.406.406,0,0,1-.182-.036m10.712-.255a1.337,1.337,0,0,0,.838.692,1.51,1.51,0,0,0,1.239,0,2.793,2.793,0,0,1-1.275.182,1.465,1.465,0,0,1-.765-.765.28.28,0,0,1-.036-.109m-34.724-4.919a1.773,1.773,0,0,1-.109-.182l-.219-.291a2.393,2.393,0,0,1,.291.364.1.1,0,0,0,.036.073,6.63,6.63,0,0,1,.292.692q-.146-.364-.292-.656m1.53,5.393a1.47,1.47,0,0,1-1.057-1.385,1.9,1.9,0,0,0,.182.619,1.4,1.4,0,0,0,.547.583,2.145,2.145,0,0,0,.547.219,3.486,3.486,0,0,0,1.239.073,2.96,2.96,0,0,1-1.312-.073.324.324,0,0,0-.146-.036m-10.275.182a1.835,1.835,0,0,0,.8-.109,1.425,1.425,0,0,0,.328-.182,1.081,1.081,0,0,1-.51.292h-.036a.688.688,0,0,0-.219.036,2.261,2.261,0,0,1-2.077-1.239.1.1,0,0,1-.036-.073,2.354,2.354,0,0,0,1.749,1.275m23.21-.219a1.374,1.374,0,0,1-.51.291h-.036a2.544,2.544,0,0,0,.364-.182,1.782,1.782,0,0,0,.182-.109m1.348-2.623a.032.032,0,0,1,.036-.036,3.3,3.3,0,0,1,.182-.583,4.62,4.62,0,0,0-.182.619q-.182.583-.364,1.057.146-.474.328-1.057m-9.947.911a.238.238,0,0,1,.109-.109q-.219.255-.4.51.146-.219.292-.4m-37.53,1.968a1.664,1.664,0,0,0,.583.109.3.3,0,0,0-.109.036,2.086,2.086,0,0,1-.474-.146m2.842-1.931v.036a1.184,1.184,0,0,0,0,.583l.073.146v.073l-.692.364v-.036h.036a.1.1,0,0,1,.036-.073,1.921,1.921,0,0,1,.182-.291h-.036q.219-.4.4-.8m-6.449-1.348a3.286,3.286,0,0,0-.875-.182.745.745,0,0,0-.328,0q0-.036.073-.036h.146a3.4,3.4,0,0,1,.984.219m-5.174,3.279h-.255a.148.148,0,0,1,.109-.036,2.863,2.863,0,0,0,.51-.4,1.278,1.278,0,0,0-.182.364.247.247,0,0,1-.182.073m26.781-3.279-.073-.036a5.919,5.919,0,0,1,1.567.4,6.411,6.411,0,0,0-1.494-.364m-.364-.036-.036.036a3.664,3.664,0,0,0-2.66,1.64,3.533,3.533,0,0,1,2.7-1.676m-4.154,3.206a4.647,4.647,0,0,1-.619.291,4.064,4.064,0,0,0,.547-.291.1.1,0,0,1,.073-.036v.036m-24.012-.292v-.036l.036.036Z"/>
        </g>
      </g>
      <g id="그룹_1408" data-name="그룹 1408" transform="translate(164.605 41.65)">
        <g id="그룹_1407" data-name="그룹 1407">
          <path id="패스_418" data-name="패스 418" class="cls-2" d="M474.166,306.445a.807.807,0,0,0-.255.036,5.472,5.472,0,0,0-4.772,4.226,4.127,4.127,0,0,1-.984,1.967h-.036a4.293,4.293,0,0,1-.219-.4,5.658,5.658,0,0,0-4.772-3.133h-.036a3.548,3.548,0,0,0-3.606,1.931l.036-.036a3,3,0,0,1-.874.874l-.036.036a2.426,2.426,0,0,1-1.858.474.105.105,0,0,0-.073-.036,1.131,1.131,0,0,1-.073-.255,7.2,7.2,0,0,0-.692-4.554,4.039,4.039,0,0,0-3.716-1.967q-4.772-.036-5.428,4.59a8.156,8.156,0,0,1-.583,2.331q-.437-.073-.8-.729a5.146,5.146,0,0,0-4.3-2.55h-.182a4.933,4.933,0,0,0-4.262,2.477v.036a4.156,4.156,0,0,1-.8.8h-.036a1.069,1.069,0,0,1-.838.255,5.528,5.528,0,0,1-.765-2.186q-1.02-4.3-4.809-3.752-3.461.255-4.845,4.554v.073a3.679,3.679,0,0,1-.437.874.665.665,0,0,1-.474.291,3.3,3.3,0,0,1-.874-1.02v-.036a5.638,5.638,0,0,0-4.262-2.586,1.353,1.353,0,0,0-.328.036q-2.951.255-4.663,3.57,0-.219-.364-.364a1.4,1.4,0,0,0-1.129-.036,1.32,1.32,0,0,0-.765.765,1.4,1.4,0,0,0-.036,1.129,1.455,1.455,0,0,0,.765.8q3.024,1.275,3.825-.437a.457.457,0,0,1,.109-.182,3.857,3.857,0,0,1,2.477-2.331,2.629,2.629,0,0,1,1.931,1.239q1.712,2.623,3.424,2.368a3.326,3.326,0,0,0,2.7-1.457.032.032,0,0,1,.036-.036,6.385,6.385,0,0,0,.838-1.749.148.148,0,0,1,.036-.109,3.2,3.2,0,0,1,2.368-2.477q1.275-.073,1.639,1.53.911,4.044,2.769,4.335l-.036-.036a3.694,3.694,0,0,0,3.461-.656V314.9a6.747,6.747,0,0,0,1.494-1.53,2.578,2.578,0,0,1,1.785-1.2h.036a2.659,2.659,0,0,1,2,1.129l-.036-.036q1.457,2.55,3.716,2.186h.036q2.332,0,3.06-4.809a2.213,2.213,0,0,1,2.514-2.113,1.434,1.434,0,0,1,1.239.546,5.308,5.308,0,0,1,.291,2.805v.182q.073,2.732,2.259,3.169a4.811,4.811,0,0,0,4.335-.911l-.036.036a6.062,6.062,0,0,0,1.785-1.821v-.073a.794.794,0,0,1,.8-.4h.036a2.984,2.984,0,0,1,2.441,1.566q1.311,2.55,3.461,1.894,2.04-.182,3.169-3.971v-.036a2.769,2.769,0,0,1,2.3-2.149q1.2.109,1.311,1.494.109,3.206,2.368,3.971a.1.1,0,0,1,.073.036q2.914,1.166,5.61-1.676l.036-.036a2.018,2.018,0,0,1,2.332-.765h.036a4.757,4.757,0,0,1,2.149,1.676q1.2,2.55,4.554,1.056a1.447,1.447,0,0,0,.765-.838,1.543,1.543,0,0,0-.036-1.093,1.477,1.477,0,0,0-1.931-.729,1.352,1.352,0,0,1-.8.182,6.94,6.94,0,0,0-3.5-2.914q-2.987-1.53-5.719,1.457a2.513,2.513,0,0,1-2.477.947,1.593,1.593,0,0,1-.546-1.421V310.6Q478.064,306.481,474.166,306.445Z"/>
        </g>
      </g>
    </g>
  </g>
</svg>
