<svg xmlns="http://www.w3.org/2000/svg" width="98" height="72" viewBox="0 0 98 72">
  <defs>
    <style>
      .cls-1 {
        fill: #d1b3b3;
        opacity: 0;
      }

      .cls-2 {
        fill: #fbcf00;
      }
    </style>
  </defs>
  <g id="ico_promotion" transform="translate(-68 -321)">
    <rect id="사각형_480" data-name="사각형 480" class="cls-1" width="98" height="72" transform="translate(68 321)"/>
    <g id="그룹_2701" data-name="그룹 2701" transform="translate(10.446)">
      <g id="그룹_1390" data-name="그룹 1390" transform="translate(28.805 42.35)">
        <g id="그룹_1389" data-name="그룹 1389">
          <path id="패스_408" data-name="패스 408" d="M105.667,321.7h1.64a1.747,1.747,0,0,0,1.822-1.822v-14.9a1.73,1.73,0,0,0-.51-1.275,1.789,1.789,0,0,0-1.312-.547H48.571a1.868,1.868,0,0,0-1.822,1.822v14.9a1.789,1.789,0,0,0,.547,1.312,1.73,1.73,0,0,0,1.275.51h1.567v23.575a1.789,1.789,0,0,0,.547,1.312,1.73,1.73,0,0,0,1.275.51h51.886a1.747,1.747,0,0,0,1.822-1.822V321.7m-.182-14.9v11.259H50.392V306.8h55.093m-3.462,14.9v21.753H53.781V321.7Z"/>
        </g>
      </g>
      <g id="그룹_1392" data-name="그룹 1392" transform="translate(28.805 42.35)">
        <g id="그룹_1391" data-name="그룹 1391">
          <path id="패스_409" data-name="패스 409" class="cls-2" d="M95.465,301.844q6.668-3.607,3.462-12.717a2.015,2.015,0,0,0-.182-.4q-5.575-8.563-14.174-3.68-4.591,2.368-6.6,8.453-2.077-5.939-6.559-8.308-8.636-4.883-14.21,3.68a2.013,2.013,0,0,0-.182.4q-3.206,9.109,3.462,12.716h.036q5.1,2.915,15.486,4.518v38.769a1.789,1.789,0,0,0,.547,1.312,1.73,1.73,0,0,0,1.275.51,1.747,1.747,0,0,0,1.822-1.822V306.435q10.6-1.64,15.814-4.591m.146-11.259q1.858,5.684-1.968,8.089h.036q-4.591,2.514-13.664,4.008.656-11.077,6.34-14.465,5.575-3.134,9.255,2.368m-33.3,8.235q-3.826-2.4-1.931-8.089,3.644-5.5,9.255-2.368,5.648,3.389,6.3,14.465Q66.862,301.334,62.307,298.82Z"/>
        </g>
      </g>
    </g>
  </g>
</svg>
