<svg id="ico_gohome" xmlns="http://www.w3.org/2000/svg" width="65" height="65" viewBox="0 0 65 65">
  <defs>
    <style>
      .cls-1, .cls-2 {
        fill: #fce300;
      }

      .cls-3, .cls-6 {
        fill: none;
      }

      .cls-3 {
        stroke: #000;
        stroke-width: 3px;
      }

      .cls-4, .cls-5 {
        stroke: none;
      }

      .cls-5 {
        fill: #000;
      }
    </style>
  </defs>
  <g id="그룹_1659" data-name="그룹 1659" transform="translate(-1002.95 -13.35)">
    <g id="그룹_1658" data-name="그룹 1658" transform="translate(1035.45 78.35)">
      <g id="그룹_1657" data-name="그룹 1657" transform="translate(-1035.45 -78.35)">
        <g id="그룹_1656" data-name="그룹 1656">
          <path id="패스_493" data-name="패스 493" class="cls-1" d="M1067.4,39.65a31.482,31.482,0,0,0-8.95-16.8,32.532,32.532,0,0,0-45.95,0,31.187,31.187,0,0,0-9.55,22.95,31.245,31.245,0,0,0,9.55,23,32.411,32.411,0,0,0,45.95,0,31.462,31.462,0,0,0,8.95-16.75,34.614,34.614,0,0,0,.55-6.25A33.508,33.508,0,0,0,1067.4,39.65Z"/>
        </g>
      </g>
    </g>
  </g>
  <g id="그룹_2444" data-name="그룹 2444" transform="translate(-1003.587 -13.35)">
    <g id="합치기_8" data-name="합치기 8" class="cls-2" transform="translate(5594.087 2182.316)">
      <path class="cls-4" d="M -4546.99951171875 -2120.81640625 L -4569.00048828125 -2120.81640625 C -4570.93017578125 -2120.81640625 -4572.50048828125 -2122.386474609375 -4572.50048828125 -2124.31640625 L -4572.50048828125 -2140.959228515625 L -4558.61572265625 -2151.33740234375 C -4558.51123046875 -2151.415283203125 -4558.29345703125 -2151.49951171875 -4558 -2151.49951171875 C -4557.70703125 -2151.49951171875 -4557.490234375 -2151.41552734375 -4557.38525390625 -2151.337158203125 L -4543.49951171875 -2140.959228515625 L -4543.49951171875 -2124.31640625 C -4543.49951171875 -2122.386474609375 -4545.06982421875 -2120.81640625 -4546.99951171875 -2120.81640625 Z"/>
      <path class="cls-5" d="M -4546.99951171875 -2122.31640625 C -4545.896484375 -2122.31640625 -4544.99951171875 -2123.213623046875 -4544.99951171875 -2124.31640625 L -4544.99951171875 -2140.20751953125 L -4558.00048828125 -2149.924560546875 L -4571.00048828125 -2140.20751953125 L -4571.00048828125 -2124.31640625 C -4571.00048828125 -2123.213623046875 -4570.103515625 -2122.31640625 -4569.00048828125 -2122.31640625 L -4546.99951171875 -2122.31640625 M -4546.99951171875 -2119.31640625 L -4569.00048828125 -2119.31640625 C -4571.76171875 -2119.31640625 -4574.00048828125 -2121.55419921875 -4574.00048828125 -2124.31640625 L -4574.00048828125 -2141.13623046875 C -4574.00048828125 -2141.1396484375 -4574.00048828125 -2141.14306640625 -4574.00048828125 -2141.146484375 L -4574.00048828125 -2141.316162109375 L -4573.984375 -2141.316162109375 C -4573.9326171875 -2141.60693359375 -4573.75390625 -2141.89453125 -4573.42529296875 -2142.140625 L -4559.513671875 -2152.538818359375 C -4558.6904296875 -2153.153076171875 -4557.3095703125 -2153.153076171875 -4556.4873046875 -2152.538818359375 L -4542.57470703125 -2142.140625 C -4542.24609375 -2141.89453125 -4542.0673828125 -2141.60693359375 -4542.015625 -2141.316162109375 L -4541.99951171875 -2141.316162109375 L -4541.99951171875 -2141.14697265625 C -4541.99951171875 -2141.141357421875 -4541.99951171875 -2141.135986328125 -4541.99951171875 -2141.13037109375 L -4541.99951171875 -2124.31640625 C -4541.99951171875 -2121.55419921875 -4544.23828125 -2119.31640625 -4546.99951171875 -2119.31640625 Z"/>
    </g>
    <g id="사각형_308" data-name="사각형 308" class="cls-3" transform="translate(1030 48)">
      <path class="cls-4" d="M6,0H6a6,6,0,0,1,6,6v9a0,0,0,0,1,0,0H1a1,1,0,0,1-1-1V6A6,6,0,0,1,6,0Z"/>
      <path class="cls-6" d="M6,1.5H6A4.5,4.5,0,0,1,10.5,6v6A1.5,1.5,0,0,1,9,13.5H2a.5.5,0,0,1-.5-.5V6A4.5,4.5,0,0,1,6,1.5Z"/>
    </g>
  </g>
</svg>
