<svg xmlns="http://www.w3.org/2000/svg" width="81" height="58" viewBox="0 0 81 58">
  <defs>
    <style>
      .cls-1 {
        fill: none;
      }

      .cls-2, .cls-3 {
        stroke: none;
      }

      .cls-3 {
        fill: #000;
      }
    </style>
  </defs>
  <g id="ico_credit" transform="translate(-948.995 -134.3)">
    <g id="빼기_2" data-name="빼기 2" class="cls-1" transform="translate(3222 3737.3)">
      <path class="cls-2" d="M-2266.005-3603h67a7,7,0,0,1,7,7v44a7,7,0,0,1-7,7h-67a7,7,0,0,1-7-7v-44A7,7,0,0,1-2266.005-3603Z"/>
      <path class="cls-3" d="M -2266.00537109375 -3598 C -2267.108154296875 -3598 -2268.00537109375 -3597.102783203125 -2268.00537109375 -3596 L -2268.00537109375 -3552 C -2268.00537109375 -3550.897216796875 -2267.108154296875 -3550 -2266.00537109375 -3550 L -2199.00537109375 -3550 C -2197.902587890625 -3550 -2197.00537109375 -3550.897216796875 -2197.00537109375 -3552 L -2197.00537109375 -3596 C -2197.00537109375 -3597.102783203125 -2197.902587890625 -3598 -2199.00537109375 -3598 L -2266.00537109375 -3598 M -2266.00537109375 -3603 L -2199.00537109375 -3603 C -2195.139404296875 -3603 -2192.00537109375 -3599.865966796875 -2192.00537109375 -3596 L -2192.00537109375 -3552 C -2192.00537109375 -3548.134033203125 -2195.139404296875 -3545 -2199.00537109375 -3545 L -2266.00537109375 -3545 C -2269.871337890625 -3545 -2273.00537109375 -3548.134033203125 -2273.00537109375 -3552 L -2273.00537109375 -3596 C -2273.00537109375 -3599.865966796875 -2269.871337890625 -3603 -2266.00537109375 -3603 Z"/>
    </g>
    <rect id="사각형_359" data-name="사각형 359" width="71" height="11" transform="translate(953.995 146.3)"/>
    <rect id="사각형_401" data-name="사각형 401" width="17" height="5" rx="2.5" transform="translate(961.995 174.3)"/>
  </g>
</svg>
