<svg xmlns="http://www.w3.org/2000/svg" width="98" height="72" viewBox="0 0 98 72">
  <defs>
    <style>
      .cls-1 {
        fill: #d1b3b3;
        opacity: 0;
      }

      .cls-2 {
        fill: #fbcf00;
      }
    </style>
  </defs>
  <g id="ico_morning" transform="translate(-226 -321)">
    <rect id="사각형_479" data-name="사각형 479" class="cls-1" width="98" height="72" transform="translate(226 321)"/>
    <g id="그룹_2700" data-name="그룹 2700" transform="translate(-2.115)">
      <g id="그룹_1394" data-name="그룹 1394" transform="translate(61.905 39.3)">
        <g id="그룹_1393" data-name="그룹 1393">
          <path id="패스_410" data-name="패스 410" d="M234.692,291.7a13.263,13.263,0,0,0-1.421,2.952v-.036a17.809,17.809,0,0,0-.911,5.868,18.137,18.137,0,0,0,.911,5.9,13.514,13.514,0,0,0,1.421,2.916,8.985,8.985,0,0,0,3.244,3.244l-1.822,33.2a1.07,1.07,0,0,0,.036.255q.4,3.791,4.556,4.264h.364a4.771,4.771,0,0,0,4.337-4.155v-.328l-1.385-33.2a9.575,9.575,0,0,0,3.28-3.28v-.036a17.95,17.95,0,0,0,0-17.568q-2.624-4.119-6.306-4.009-3.718-.073-6.306,4.009m1.349,13.741a15.159,15.159,0,0,1-.765-4.957,14.833,14.833,0,0,1,.765-4.921,8.716,8.716,0,0,1,1.093-2.3q1.6-2.588,3.864-2.661,2.223.073,3.864,2.661l-.036-.036a15.08,15.08,0,0,1,0,14.507h.036q-1.64,2.551-3.864,2.624-2.26-.073-3.864-2.624a10.463,10.463,0,0,1-1.093-2.3m4.775,8.092h.328l1.349,32.148a2.056,2.056,0,0,1-1.64,1.677,1.992,1.992,0,0,1-1.822-1.567Z"/>
        </g>
      </g>
      <g id="그룹_1396" data-name="그룹 1396" transform="translate(61.905 39.3)">
        <g id="그룹_1395" data-name="그룹 1395">
          <path id="패스_411" data-name="패스 411" class="cls-2" d="M200.476,297.472a4.076,4.076,0,0,1,2.332-2.368,1.61,1.61,0,0,0,.8-.8,1.421,1.421,0,0,0,0-1.093,1.456,1.456,0,0,0-1.858-.838,6.811,6.811,0,0,0-3.972,3.972v.073q-1.166,2.951,1.64,5.575v.036a3.367,3.367,0,0,1,.947,2.915h-.036a4.042,4.042,0,0,1-2.077,2.368,1.318,1.318,0,0,0-.692.874,1.441,1.441,0,0,0,.182,1.13,1.339,1.339,0,0,0,.874.656,1.534,1.534,0,0,0,1.13-.146q3.352-2.04,3.5-4.555v-.036a5.966,5.966,0,0,0-1.822-5.356h-.036a2.387,2.387,0,0,1-.911-2.4m29.951,26.271a1.44,1.44,0,0,0-1.057-.437H185.683a1.494,1.494,0,0,0-1.457,1.457,1.44,1.44,0,0,0,.437,1.057,1.382,1.382,0,0,0,1.02.4h43.688a1.377,1.377,0,0,0,1.457-1.457,1.382,1.382,0,0,0-.4-1.02M217.31,297.472a4.076,4.076,0,0,1,2.332-2.368,1.61,1.61,0,0,0,.8-.8,1.421,1.421,0,0,0,0-1.093,1.456,1.456,0,0,0-1.858-.838,6.811,6.811,0,0,0-3.972,3.972v.073q-1.166,2.951,1.64,5.575v.036a3.367,3.367,0,0,1,.947,2.915h-.036a4.042,4.042,0,0,1-2.077,2.368,1.318,1.318,0,0,0-.692.874,1.441,1.441,0,0,0,.182,1.13,1.339,1.339,0,0,0,.874.656,1.534,1.534,0,0,0,1.13-.146q3.352-2.04,3.5-4.555v-.036a5.966,5.966,0,0,0-1.822-5.356h-.036a2.387,2.387,0,0,1-.911-2.4m-6.158-9.109a1.323,1.323,0,0,0-1.093-.036,6.811,6.811,0,0,0-3.972,3.972v.073q-1.166,2.951,1.64,5.575v.036a3.367,3.367,0,0,1,.947,2.915h-.036a4.042,4.042,0,0,1-2.077,2.368,1.318,1.318,0,0,0-.692.875,1.441,1.441,0,0,0,.182,1.13,1.339,1.339,0,0,0,.874.656,1.534,1.534,0,0,0,1.13-.146q3.352-2.04,3.5-4.555v-.036a5.966,5.966,0,0,0-1.822-5.356h-.036a2.387,2.387,0,0,1-.911-2.4,4.076,4.076,0,0,1,2.332-2.368,1.61,1.61,0,0,0,.8-.8,1.421,1.421,0,0,0,0-1.093A1.317,1.317,0,0,0,211.152,288.362Z"/>
        </g>
      </g>
      <g id="그룹_1398" data-name="그룹 1398" transform="translate(61.905 39.3)">
        <g id="그룹_1397" data-name="그룹 1397">
          <path id="패스_412" data-name="패스 412" d="M233.379,317a2.1,2.1,0,0,0-.073-1.093,2.026,2.026,0,0,0-.656-.838,1.814,1.814,0,0,0-1.057-.328H183.023a1.653,1.653,0,0,0-1.02.328,1.9,1.9,0,0,0-.692.874,1.74,1.74,0,0,0-.036,1.057l7.688,30.425a1.785,1.785,0,0,0,.656,1.02,1.743,1.743,0,0,0,1.093.364H224.2a1.887,1.887,0,0,0,1.785-1.385l7.4-30.425m-41.247,28.166-6.777-26.781H229.3l-6.522,26.781Z"/>
        </g>
      </g>
    </g>
  </g>
</svg>
