<svg id="ico_allergy" xmlns="http://www.w3.org/2000/svg" width="65" height="65" viewBox="0 0 65 65">
  <defs>
    <style>
      .cls-1 {
        fill: #fce300;
      }

      .cls-2 {
        fill: none;
      }

      .cls-3, .cls-4 {
        stroke: none;
      }

      .cls-4 {
        fill: #000;
      }
    </style>
  </defs>
  <circle id="타원_34" data-name="타원 34" class="cls-1" cx="32.5" cy="32.5" r="32.5"/>
  <g id="그룹_2710" data-name="그룹 2710" transform="translate(-819 -18)">
    <g id="다각형_6" data-name="다각형 6" class="cls-2" transform="translate(821 26)">
      <path class="cls-3" d="M23.6,8.533a8,8,0,0,1,12.8,0L50.4,27.2A8,8,0,0,1,44,40H16A8,8,0,0,1,9.6,27.2Z"/>
      <path class="cls-4" d="M 30 8.333332061767578 C 28.41120910644531 8.333332061767578 26.95326995849609 9.062301635742188 26 10.33333206176758 L 12 29.00000381469727 C 10.83901977539062 30.5479736328125 10.66252136230469 32.5053825378418 11.52785873413086 34.2360725402832 C 12.39321136474609 35.96675109863281 14.06502914428711 37.00000381469727 16 37.00000381469727 L 44 37.00000381469727 C 45.93497085571289 37.00000381469727 47.60678863525391 35.96675109863281 48.47214126586914 34.2360725402832 C 49.33747863769531 32.5053825378418 49.16098022460938 30.5479736328125 48 29.00000381469727 L 34 10.33333206176758 C 33.04673004150391 9.062301635742188 31.58879089355469 8.333332061767578 30 8.333332061767578 M 30 5.333332061767578 C 32.40000152587891 5.333332061767578 34.79999923706055 6.399997711181641 36.40000152587891 8.533332824707031 L 50.40000152587891 27.20000267028809 C 54.35541915893555 32.47389221191406 50.59236145019531 40.00000381469727 44 40.00000381469727 L 16 40.00000381469727 C 9.407638549804688 40.00000381469727 5.644580841064453 32.47389221191406 9.599998474121094 27.20000267028809 L 23.59999847412109 8.533332824707031 C 25.20000076293945 6.399997711181641 27.59999847412109 5.333332061767578 30 5.333332061767578 Z"/>
    </g>
    <path id="합치기_31" data-name="합치기 31" d="M-2102-2794.5a2.5,2.5,0,0,1,2.5-2.5,2.5,2.5,0,0,1,2.5,2.5,2.5,2.5,0,0,1-2.5,2.5A2.5,2.5,0,0,1-2102-2794.5Zm.5-6.5v-9a2,2,0,0,1,2-2,2,2,0,0,1,2,2v9a2,2,0,0,1-2,2A2,2,0,0,1-2101.5-2801Z" transform="translate(2950.5 2852)"/>
  </g>
</svg>
