<svg xmlns="http://www.w3.org/2000/svg" width="98" height="72" viewBox="0 0 98 72">
  <defs>
    <style>
      .cls-1 {
        fill: #d1b3b3;
        opacity: 0;
      }

      .cls-2 {
        fill: #fbcf00;
      }
    </style>
  </defs>
  <g id="ico_sandwich" transform="translate(-394 -321)">
    <rect id="사각형_478" data-name="사각형 478" class="cls-1" width="98" height="72" transform="translate(394 321)"/>
    <g id="그룹_2699" data-name="그룹 2699" transform="translate(-4.355)">
      <g id="그룹_1400" data-name="그룹 1400" transform="translate(108.405 45.85)">
        <g id="그룹_1399" data-name="그룹 1399">
          <path id="패스_413" data-name="패스 413" class="cls-2" d="M358.722,320.9a1.4,1.4,0,0,0-.437-1.02,1.508,1.508,0,0,0-1.057-.4.323.323,0,0,0-.146.036.6.6,0,0,0-.182-.036,1.382,1.382,0,0,0-1.02.4,1.349,1.349,0,0,0-.474,1.02,2.99,2.99,0,0,1-5.976,0,1.4,1.4,0,0,0-.437-1.02,1.508,1.508,0,0,0-1.057-.4h-.219a1.382,1.382,0,0,0-1.02.4,1.349,1.349,0,0,0-.474,1.02,2.99,2.99,0,0,1-5.1,2,3.083,3.083,0,0,1-.947-2.04,1.409,1.409,0,0,0-.474-.984,1.462,1.462,0,0,0-1.02-.4,1.5,1.5,0,0,0-1.421,1.421,2.99,2.99,0,0,1-5.976,0,1.4,1.4,0,0,0-.437-1.02,1.508,1.508,0,0,0-1.057-.4h-.109a1.382,1.382,0,0,0-1.02.4,1.349,1.349,0,0,0-.474,1.02,2.99,2.99,0,0,1-5.976,0,1.4,1.4,0,0,0-.437-1.02,1.508,1.508,0,0,0-1.057-.4.674.674,0,0,1-.437,0,1.382,1.382,0,0,0-1.02.4,1.349,1.349,0,0,0-.474,1.02,2.99,2.99,0,0,1-5.976,0,1.4,1.4,0,0,0-.437-1.02,1.508,1.508,0,0,0-1.057-.4h-.109a1.382,1.382,0,0,0-1.02.4,1.349,1.349,0,0,0-.474,1.02,2.99,2.99,0,0,1-5.976,0,1.4,1.4,0,0,0-.437-1.02,1.508,1.508,0,0,0-1.057-.4,1.349,1.349,0,0,0-1.02.474,1.382,1.382,0,0,0-.4,1.02,5.6,5.6,0,0,0,1.713,4.008,5.7,5.7,0,0,0,4.19,1.713,5.58,5.58,0,0,0,4.154-1.713l.036-.036a4.443,4.443,0,0,1,.328-.364,4.967,4.967,0,0,0,.364.4,5.7,5.7,0,0,0,4.19,1.713,5.579,5.579,0,0,0,4.154-1.713l.036-.036q.255-.255.51-.547a5.476,5.476,0,0,0,.51.583,5.7,5.7,0,0,0,4.19,1.713,5.579,5.579,0,0,0,4.154-1.713l.036-.036a4.437,4.437,0,0,1,.328-.364,4.962,4.962,0,0,0,.364.4,5.7,5.7,0,0,0,4.19,1.713,5.579,5.579,0,0,0,4.154-1.713l.036-.036.292-.292a3.164,3.164,0,0,0,.291.328,5.7,5.7,0,0,0,4.19,1.713,5.579,5.579,0,0,0,4.154-1.713l.036-.036a3.126,3.126,0,0,1,.4-.4q.182.219.4.437a5.7,5.7,0,0,0,4.19,1.713,5.579,5.579,0,0,0,4.154-1.713l.036-.036q.219-.255.437-.474.219.255.474.51a5.7,5.7,0,0,0,4.19,1.713,5.579,5.579,0,0,0,4.154-1.713l.036-.036q.219-.255.437-.474.219.255.474.51a5.7,5.7,0,0,0,4.19,1.713,5.579,5.579,0,0,0,4.154-1.713l.036-.036a5.478,5.478,0,0,0,1.713-3.972,1.382,1.382,0,0,0-.4-1.02,1.278,1.278,0,0,0-1.02-.474,1.382,1.382,0,0,0-1.02.4,1.349,1.349,0,0,0-.474,1.02,2.99,2.99,0,0,1-5.976,0,1.4,1.4,0,0,0-.437-1.02,1.508,1.508,0,0,0-1.057-.4.323.323,0,0,0-.146.036.6.6,0,0,0-.182-.036,1.382,1.382,0,0,0-1.02.4,1.349,1.349,0,0,0-.474,1.02,2.99,2.99,0,0,1-5.976,0Z"/>
        </g>
      </g>
      <g id="그룹_1402" data-name="그룹 1402" transform="translate(108.405 45.85)">
        <g id="그룹_1401" data-name="그룹 1401">
          <path id="패스_414" data-name="패스 414" d="M370.273,339.593a1.949,1.949,0,0,0,.729-.146q5.466-2.3,6.559-9.583a1.814,1.814,0,0,0-.146-1.02,2.032,2.032,0,0,0-.692-.8,1.734,1.734,0,0,0-.984-.292H301.771a1.672,1.672,0,0,0-1.275.547,1.789,1.789,0,0,0-.547,1.312q.036,6.449,4.846,9.692a1.912,1.912,0,0,0,1.02.292h64.457m3.206-8.2a7.5,7.5,0,0,1-3.644,4.555h-63.4a7.252,7.252,0,0,1-2.66-4.555h69.7m4.044-14.939q-.474-7.142-3.826-11.113-3.389-4.117-10.275-5.138a1.2,1.2,0,0,0-.292-.036H313.5a1.355,1.355,0,0,0-.328.036q-12.425,2.3-13.154,16.287a1.7,1.7,0,0,0,.219.947,1.637,1.637,0,0,0,.656.692,1.848,1.848,0,0,0,.947.255H375.7a1.848,1.848,0,0,0,.947-.255,2.2,2.2,0,0,0,.692-.729,1.794,1.794,0,0,0,.182-.947m-14.538-12.644q5.247.8,7.907,3.862a14.405,14.405,0,0,1,2.806,7.069h-69.85q1.239-9.146,9.838-10.931Z"/>
        </g>
      </g>
    </g>
  </g>
</svg>
