<svg xmlns="http://www.w3.org/2000/svg" width="98" height="72" viewBox="0 0 98 72">
  <defs>
    <style>
      .cls-1 {
        fill: #d1b3b3;
        opacity: 0;
      }

      .cls-2 {
        fill: #fbcf00;
      }
    </style>
  </defs>
  <g id="ico_wrap" transform="translate(-724 -321)">
    <rect id="shape" class="cls-1" width="98" height="72" transform="translate(724 321)"/>
    <g id="그룹_2697" data-name="그룹 2697" transform="translate(-15.787)">
      <g id="그룹_1410" data-name="그룹 1410" transform="translate(220.305 39.05)">
        <g id="그룹_1409" data-name="그룹 1409">
          <path id="패스_419" data-name="패스 419" class="cls-2" d="M570.385,318.168a1.351,1.351,0,0,0-1.093,0,1.469,1.469,0,0,0-.036,2.7q8.078,3.432,13.081,1.057,1.315,5.542-.692,8.417-2.547,3.137-9.692,2.879a1.4,1.4,0,0,0-1.02.364,1.472,1.472,0,0,0-.474,1.02,1.444,1.444,0,0,0,.364,1.057,1.474,1.474,0,0,0,1.02.474q9.035.324,12.133-4.044,3.137-3.941.911-11.915,3.387-3.029,4.7-9.838a1.285,1.285,0,0,0-.219-1.057,1.421,1.421,0,0,0-.947-.619,1.324,1.324,0,0,0-1.057.219,1.5,1.5,0,0,0-.656.911q-1.191,6.208-4.336,8.672l-.036.036q-4.225,2.961-11.951-.328m21.789-3.644a1.483,1.483,0,0,0-.146,1.093q1.009,3.83-.838,5.793a1.5,1.5,0,0,0-.437.984,1.354,1.354,0,0,0,.328.984q3.814,4.651,2.514,8.745-.036.109-.073.219-.838,3.771-7.98,5.466a1.571,1.571,0,0,0-.692.364,1.716,1.716,0,0,0-.4.656,6.824,6.824,0,0,1-4.955,4.992,1.478,1.478,0,0,0-.838.729,1.429,1.429,0,0,0-.146,1.093,1.476,1.476,0,0,0,.729.875,1.318,1.318,0,0,0,1.093.109A9.5,9.5,0,0,0,587,340.431q8.622-2.242,9.4-7.47,1.74-4.964-2.3-10.457,2-2.8.729-7.615a1.416,1.416,0,0,0-.656-.911,1.477,1.477,0,0,0-1.093-.146A1.56,1.56,0,0,0,592.174,314.524Z"/>
        </g>
      </g>
      <g id="그룹_1412" data-name="그룹 1412" transform="translate(220.305 39.05)">
        <g id="그룹_1411" data-name="그룹 1411">
          <path id="패스_420" data-name="패스 420" d="M594.178,311.9a1.268,1.268,0,0,0-.255-.255,34.939,34.939,0,0,0-7.251-4.263h.036q-.729-.292-1.421-.51a.28.28,0,0,0-.109-.036l-34.8-13.227a2,2,0,0,0-.255-.109q-8.162-1.785-13.008,6.194a48.962,48.962,0,0,0-4.372,9.219v-.036a44.06,44.06,0,0,0-1.494,5.138q-2.478,10.53,3.024,13.773a.457.457,0,0,0,.182.109A488.705,488.705,0,0,0,581.17,348.01l.146.073q.619.292,1.312.547l.036.036q.219.073.474.182a.1.1,0,0,1,.073.036q12.717,4.627,18.4-8.49l.073-.219q4.3-15.267-7.506-28.275m4.081,27.036v.073q-4.3,9.765-13.7,6.486a.279.279,0,0,0-.109-.036q-.219-.109-.4-.182h-.036q-.619-.255-1.166-.51a.918.918,0,0,0-.219-.109,18.616,18.616,0,0,1-2.077-1.057q-5.939-3.935-8.235-12.243h.036a28.738,28.738,0,0,1-.51-12.862.032.032,0,0,1,.036-.036,11.264,11.264,0,0,1,.4-2q4.008-8.563,11.769-6.158a.323.323,0,0,1,.146.036q.547.182,1.093.4a32.333,32.333,0,0,1,6.34,3.753q10.129,11.259,6.632,24.449m-29.988-21.024v.073q-6.777,6.814-15.923,3.717-10.676-3.534-16.032-11.951a44.886,44.886,0,0,1,3.935-8.162q3.389-5.611,9.036-4.518l26.38,10.02q-4.008,2.077-6.741,7.907a1.424,1.424,0,0,0-.109.291,20.154,20.154,0,0,0-.547,2.623m-33.486-3.061q.182-.838.4-1.6,5.793,7.725,16.251,11.223H551.4q9.182,3.134,16.36-2.186a31.259,31.259,0,0,0,1.057,10.02,27.964,27.964,0,0,0,3.826,8.563q-17.271-6.814-36.4-16.178Q533.037,322.249,534.786,314.852Z"/>
        </g>
      </g>
    </g>
  </g>
</svg>
