<svg id="구성_요소_29" data-name="구성 요소 29" xmlns="http://www.w3.org/2000/svg" width="55" height="50" viewBox="0 0 55 50">
  <defs>
    <style>
      .cls-1 {
        fill: #333;
      }

      .cls-2 {
        fill: #ff6b1e;
      }
    </style>
  </defs>
  <rect id="사각형_417" data-name="사각형 417" class="cls-1" width="55" height="50" rx="6"/>
  <path id="합치기_28" data-name="합치기 28" class="cls-2" d="M-3493.293-4734.736a1,1,0,0,1,0-1.416l6.364-6.364-6.364-6.363a1,1,0,0,1,0-1.414,1,1,0,0,1,1.415,0l6.364,6.363,6.364-6.363a1,1,0,0,1,1.414,0,1,1,0,0,1,0,1.414l-6.364,6.363,6.364,6.364a1,1,0,0,1,0,1.414,1,1,0,0,1-1.414,0l-6.364-6.363-6.365,6.365a1,1,0,0,1-.707.292A1,1,0,0,1-3493.293-4734.736Z" transform="translate(3513.585 4767.586)"/>
</svg>
